<?xml version="1.0" encoding="utf-8"?>
<!-- Generator: Adobe Illustrator 25.2.3, SVG Export Plug-In . SVG Version: 6.00 Build 0)  -->
<svg version="1.1" id="Layer_1" xmlns="http://www.w3.org/2000/svg" xmlns:xlink="http://www.w3.org/1999/xlink" x="0px" y="0px"
	 width="134.4px" height="30.1px" viewBox="0 0 134.4 30.1" style="enable-background:new 0 0 134.4 30.1;" xml:space="preserve">
<style type="text/css">
	.st0{fill:#2F2F92;}
	.st1{fill:#09ABE9;}
</style>
<path class="st0" d="M112.9,15c0-4.5,0-9.1,0-13.6c0-0.4,0.1-0.5,0.5-0.5c6.5,0,13,0,19.6,0c0.4,0,0.5,0.1,0.5,0.5
	c0,9.1,0,18.2,0,27.2c0,0.4-0.1,0.5-0.5,0.5c-6.5,0-13,0-19.6,0c-0.4,0-0.5-0.1-0.5-0.5C112.9,24.1,112.9,19.6,112.9,15z
	 M120.5,23.6c-0.3,0.6-0.8,1-1.3,1.5c0,0,0.1,0,0.1,0c3.7,0,7.3,0,11,0c0.4,0,0.4-0.2,0.4-0.4c0-6.5,0-12.9,0-19.4
	c0-0.4-0.1-0.4-0.4-0.4c-4.6,0-9.3,0-13.9,0c-0.4,0-0.5,0.1-0.5,0.5c0,5.3,0,10.5,0,15.8c0,0.3,0.1,0.4,0.4,0.4c1.1,0,2.2,0,3.3,0
	c0.3,0.1,0.2,0.5,0.3,0.7C120.1,22.7,120,23.2,120.5,23.6z"/>
<path class="st1" d="M119.6,21.5c0.1-0.2,0.1-0.3,0-0.5c-0.8-3.1-1-6.2-1-9.4c0.3,0.7,0.2,1.3,0.4,1.9c0.2,1,0.5,1.9,1.1,2.7
	c1,1.4,2.3,1.4,3.5,0.2c0.2-0.2,0.3-0.5,0.6-0.6c0.2,0.5,0,0.9-0.1,1.3c-0.4-0.2-0.7,0.1-0.9,0.4c-0.6,0.7-0.5,1.8,0.2,2.8
	c-0.9-0.1-1.4-0.7-2.1-1.3c0.2,1.1,0.3,2.1,0,3.1c-0.1,0.5-0.3,1-0.7,1.3c-0.4-0.3-0.4-0.9-0.6-1.4C119.8,22,119.9,21.7,119.6,21.5z
	"/>
<path class="st0" d="M124.1,17.2c0.1-0.4,0.3-0.9,0.1-1.3c0-0.2,0.1-0.5,0.1-0.9c-0.4,0.6-0.7,1.1-1.2,1.5c-1,0.9-1.9,0.8-2.7-0.3
	c-0.1-0.2-0.1-0.3,0.1-0.4c0.5-0.4,0.8-1,0.7-1.7c-0.1-0.5-0.3-0.9-0.7-1c-0.5,0-0.7,0.3-0.9,0.7c0,0.1,0,0.1-0.1,0.2
	c-0.6-1.6-0.7-3.2-0.9-4.7c-0.1,0.3-0.2,0.6-0.2,1c-0.1,1.9-0.1,3.9-0.1,5.8c0,1.5,0.3,2.9,0.4,4.3c0,0,0,0.1,0,0.1
	c0.2,0.8,0.2,0.8-0.6,0.8c-0.5,0-1.1,0-1.6,0c-0.2,0-0.3-0.1-0.3-0.3c0,0,0-0.1,0-0.1c0-5,0-10.1,0-15.1c0-0.3,0.1-0.4,0.4-0.4
	c4.4,0,8.9,0,13.3,0c0.4,0,0.4,0.2,0.4,0.5c0,4.2,0,8.4,0,12.5c0,2,0,4.1,0,6.1c0,0.3,0,0.4-0.4,0.4c-0.6,0-1.2,0-1.9,0
	c-0.3,0-0.5-0.1-0.5-0.4c-0.2-1.1-0.4-2.1-0.6-3.2c-0.6-3.1-0.6-6.2-0.6-9.3c0-0.2,0-0.5,0-0.7c0,0-0.1,0-0.1,0
	c0,0.9-0.1,1.7-0.1,2.6c-0.1,0.9-0.1,1.9-0.2,2.8c-0.1,0.9-0.1,1.8-0.8,2.6c0-0.6,0-1-0.2-1.4C124.7,17.5,124.5,17.2,124.1,17.2z
	 M119.4,6.8c0-0.2-0.1-0.3-0.2-0.3c-0.2-0.1-0.4-0.2-0.6-0.3c-0.3-0.1-0.4-0.1-0.5,0.2c-0.1,0.4-0.3,0.8-0.5,1.2
	c-0.1,0.3-0.1,0.5,0.2,0.5c0.3,0.1,0.6,0.5,0.8,0.2C119.1,7.8,119.2,7.3,119.4,6.8z M127.1,8.5c0-0.2,0-0.2-0.1-0.3
	c-0.3-0.2-0.6-0.5-1-0.4c-0.3,0-0.3,0.4-0.4,0.7c-0.1,0.2-0.2,0.4-0.3,0.7c-0.1,0.2-0.1,0.4,0.1,0.5c0.3,0.1,0.5,0.4,0.9,0.4
	c0,0,0.1,0,0.1-0.1C126.6,9.5,126.9,9,127.1,8.5z M124,14.4c0.3,0,0.6-0.3,0.6-0.6c0-0.3-0.2-0.6-0.6-0.7c-0.3,0-0.6,0.3-0.6,0.6
	C123.4,14.1,123.6,14.4,124,14.4z M123.6,12.3c0,0.2,0.2,0.5,0.4,0.5c0.3,0,0.4-0.3,0.4-0.5c0-0.3-0.1-0.5-0.4-0.5
	C123.7,11.7,123.6,12,123.6,12.3z"/>
<path class="st1" d="M121.7,19.9c0.2,0.2,0.5,0.3,0.7,0.5c0.9,0.6,1.9,0.4,2.5-0.4c0.7-0.8,0.9-1.8,1.1-2.9c0-0.1,0-0.1,0.1-0.2
	c0.1,0.6,0.1,1.2,0.2,1.8c0.1,1.9,0.4,3.8,0.8,5.6c0.1,0.4,0,0.5-0.4,0.5c-1.9,0-3.7,0-5.6,0c-0.2,0-0.5,0.1-0.3-0.3
	c0.9-1.3,1-2.8,0.8-4.3C121.6,20.1,121.6,20,121.7,19.9z"/>
<path class="st1" d="M124.8,18.9c0,0.2,0,0.5-0.1,0.7c-0.1,0.4-0.4,0.6-0.7,0.7c-0.4,0-0.6-0.3-0.7-0.6c-0.2-0.7-0.3-1.3,0.1-2
	c0.3-0.5,0.9-0.5,1.2,0C124.8,18.1,124.9,18.5,124.8,18.9z"/>
<path class="st1" d="M119.6,14.2c0-0.5,0.3-1,0.7-1c0.4,0,0.7,0.6,0.7,1.1c-0.1,0.6-0.4,1-0.7,0.9C120,15.3,119.6,14.7,119.6,14.2z"
	/>
<path class="st1" d="M119.4,6.8c-0.2,0.5-0.4,1-0.7,1.5c-0.2,0.3-0.6-0.1-0.8-0.2c-0.2-0.1-0.3-0.3-0.2-0.5c0.2-0.4,0.3-0.8,0.5-1.2
	c0.1-0.3,0.2-0.3,0.5-0.2c0.2,0.1,0.4,0.2,0.6,0.3C119.3,6.6,119.4,6.6,119.4,6.8z"/>
<path class="st1" d="M127.1,8.5c-0.2,0.4-0.4,1-0.7,1.5c0,0,0,0.1-0.1,0.1c-0.3,0-0.6-0.2-0.9-0.4c-0.2-0.1-0.2-0.3-0.1-0.5
	c0.1-0.2,0.2-0.5,0.3-0.7c0.1-0.2,0.1-0.7,0.4-0.7c0.3,0,0.6,0.3,1,0.4C127.1,8.3,127.1,8.4,127.1,8.5z"/>
<g>
	<path d="M49,7.4c0,1-0.3,1.8-0.9,2.3c-0.6,0.6-1.4,0.9-2.4,0.9c-1,0-1.8-0.3-2.4-0.9c-0.6-0.6-0.9-1.4-0.9-2.3s0.3-1.8,0.9-2.3
		c0.6-0.6,1.4-0.9,2.3-0.9c1,0,1.8,0.3,2.4,0.9C48.7,5.6,49,6.4,49,7.4z M45.3,3.2h-1.7V1.6h1.7V3.2z M47.2,7.5
		c0-1.2-0.5-1.8-1.5-1.8c-1,0-1.5,0.6-1.5,1.8c0,0.5,0.1,0.9,0.4,1.2c0.3,0.3,0.6,0.5,1.1,0.5c0.5,0,0.9-0.2,1.1-0.5
		C47.1,8.4,47.2,8,47.2,7.5z M47.8,3.2h-1.7V1.6h1.7V3.2z"/>
	<path d="M53.8,9.4c0,1.2-0.3,2.1-0.9,2.7c-0.6,0.5-1.5,0.8-2.8,0.8v-1.5c1.2,0,1.8-0.6,1.8-1.8v-5h1.9V9.4z"/>
	<path d="M57.1,10.6h-1.9V2h1.9V10.6z"/>
	<path d="M65.3,10.6h-6.7V8.9h4.9c0-1.9-1-2.7-3.4-2.7V4.6c1.2,0,2,0.1,2.5,0.3c1.8,0.6,2.8,2,2.8,4V10.6z"/>
	<path d="M68.5,10.6h-1.9V2h1.9V10.6z"/>
	<path d="M81.4,10.6h-0.1c-1.9,0-3.3-0.9-3.9-2.7h-1.2c-1.3,0-1.9,0.5-1.9,1.6c0,1,0.6,1.5,1.9,1.5h1.4v1.9h-1.2
		c-2.6,0-3.9-1.3-3.9-3.4c0-1.8,1.1-3,2.8-3.3C75.4,6.1,76,6.1,77,6.1c-0.2-1.2-1-1.8-2.2-1.8c-0.3,0-0.6,0.1-0.8,0.1V2.8
		c0.3-0.1,0.6-0.1,0.9-0.1c2.4,0,3.8,1.5,3.9,4.1c0.2,1.4,1,2,2.2,2h0.2V10.6z M77,10.2h-1.7V8.6H77V10.2z"/>
	<path d="M89,8.7c0,1.8-1.2,3.1-3.1,3.1c-1.1,0-2-0.4-2.5-1.2H81V8.9h1.9c0-1.9,1.1-3.1,3-3.1C87.8,5.7,89,6.9,89,8.7z M87.1,8.8
		c0-1.1-0.4-1.6-1.2-1.6h-0.1c-0.7,0-1.2,0.6-1.2,1.5c0,0.9,0.5,1.5,1.3,1.5C86.6,10.3,87.1,9.7,87.1,8.8z"/>
	<path d="M94.4,10.6h-1.8c-1.4,0-2.3-0.8-2.3-2.2V2h1.9v5.4c0,0.9,0.2,1.4,1.6,1.4h0.5V10.6z"/>
	<path d="M98.1,8.1c0,0.7-0.2,1.3-0.6,1.8c-0.4,0.5-1.1,0.8-1.8,0.8h-1.6V8.9h1.2c0.6,0,1-0.4,1-1.3v-3h1.9V8.1z M98,3.6h-1.7V2H98
		V3.6z"/>
	<path d="M104.9,10.6h-2.1c-0.3,1.5-1.5,2.2-3.6,2.2v-1.5c1.2,0,1.8-0.6,1.8-1.8v-5h1.9v4.3h2V10.6z"/>
	<path d="M108.5,8.1c0,0.7-0.2,1.3-0.6,1.8c-0.4,0.5-1.1,0.8-1.8,0.8h-1.6V8.9h1.2c0.6,0,1-0.4,1-1.3v-3h1.9V8.1z M108.4,12.9h-1.7
		v-1.6h1.7V12.9z"/>
	<path d="M11.7,26.7H9.9c-1.1,0-1.8-0.5-2.2-1.6c-0.3,0.5-1,0.8-1.9,0.8c-1.6,0-2.6-1.4-2.6-3.2c0-2,1-3.3,2.8-3.3c0,0,1.2,0,3.6,0
		v4.2c0,0.9,0.5,1.4,1.4,1.4h1V26.7z M6.2,18.1H4.6v-1.6h1.7V18.1z M7.5,22.5v-1.8H6.3c-0.8,0-1.3,0.8-1.3,1.9
		c0,0.9,0.5,1.7,1.3,1.7C7,24.3,7.5,23.6,7.5,22.5z M8.7,18.1H7.1v-1.6h1.7V18.1z"/>
	<path d="M12.8,28.9h-1.7v-1.6h1.7V28.9z M17.4,26.7h-6v-1.8h1.2c0.6,0,0.9-0.4,0.9-1.3v-3h1.9v2.9c0,0.5-0.1,0.9-0.2,1.4h2.2V26.7z
		 M15.3,28.9h-1.7v-1.6h1.7V28.9z"/>
	<path d="M21.2,24.1c0,0.7-0.2,1.3-0.6,1.8c-0.4,0.5-1.1,0.8-1.8,0.8h-1.6v-1.8h1.2c0.6,0,1-0.4,1-1.3v-3h1.9V24.1z M21.1,28.9h-1.7
		v-1.6h1.7V28.9z"/>
	<path d="M26.6,26.7h-1.8c-1.4,0-2.3-0.8-2.3-2.2v-6.4h1.9v5.4c0,0.9,0.2,1.4,1.6,1.4h0.5V26.7z"/>
	<path d="M37.2,26.7H26.2v-1.8h7.6c0-0.7-0.3-1.3-0.8-1.8c-0.5-0.6-1.2-0.9-2.1-0.9c-0.8,0-1.7,0.4-2.2,1c-0.2-0.3-0.5-0.7-0.9-1.3
		c0.9-1,2-1.4,3.3-1.4c0.8,0,1.5,0.1,2.1,0.4c1.4,0.7,2.3,2,2.5,4h1.4V26.7z M31.9,19.6h-1.7v-1.5h1.7V19.6z"/>
	<path d="M38.2,19.6h-1.7v-1.5h1.7V19.6z M42.9,26.7h-6v-1.8h1.2c0.6,0,1-0.4,1-1.3v-3h1.9v2.9c0,0.5-0.1,0.9-0.2,1.4h2.2V26.7z
		 M40.8,19.6h-1.7v-1.5h1.7V19.6z"/>
	<path d="M46.6,24.1c0,0.7-0.2,1.3-0.6,1.8c-0.4,0.5-1.1,0.8-1.8,0.8h-1.6v-1.8h1.2c0.6,0,1-0.4,1-1.3v-3h1.9V24.1z M46.5,19.6h-1.7
		v-1.5h1.7V19.6z"/>
	<path d="M54.7,24.5c0,0.7-0.2,1.2-0.7,1.6c-0.4,0.4-1,0.6-1.6,0.6H48v-1.8h2L48.3,19h2l1.7,5.9c0.6,0,1-0.5,1-1.4v-5.5h1.8V24.5z"
		/>
	<path d="M58,26.7h-1.9v-8.6H58V26.7z"/>
	<path d="M70.4,26.7h-1.9c-1.1,0-1.8-0.5-2.2-1.6c-0.3,0.5-1,0.8-1.9,0.8c-1.6,0-2.6-1.4-2.6-3.2c0-2,1-3.3,2.8-3.3c0,0,1.2,0,3.6,0
		v4.2c0,0.9,0.5,1.4,1.4,1.4h1V26.7z M64.9,18.1h-1.7v-1.6h1.7V18.1z M66.2,22.5v-1.8h-1.2c-0.8,0-1.3,0.8-1.3,1.9
		c0,0.9,0.5,1.7,1.3,1.7C65.7,24.3,66.2,23.6,66.2,22.5z M67.4,18.1h-1.7v-1.6h1.7V18.1z"/>
	<path d="M71.4,28.9h-1.7v-1.6h1.7V28.9z M76.1,26.7h-6v-1.8h1.2c0.6,0,0.9-0.4,0.9-1.3v-3h1.9v2.9c0,0.5-0.1,0.9-0.2,1.4h2.2V26.7z
		 M74,28.9h-1.7v-1.6H74V28.9z"/>
	<path d="M81.9,26.7h-6.1v-1.8h1.3c0.6,0,0.9-0.4,0.9-1.3v-5.5h1.9v5.5c0,0.5-0.1,0.9-0.2,1.4h2.2V26.7z"/>
	<path d="M90.7,26.7h-2.1c-0.5,0.8-1.4,1.2-2.5,1.2c-1.1,0-2-0.4-2.5-1.2h-2v-1.8H83c0-1.9,1.1-3.1,3-3.1c2,0,3.1,1.2,3.1,3.1h1.6
		V26.7z M87.3,24.9c0-1.1-0.4-1.6-1.2-1.6H86c-0.7,0-1.1,0.6-1.1,1.5c0,0.9,0.5,1.5,1.2,1.5C86.9,26.3,87.3,25.8,87.3,24.9z"/>
	<path d="M101.6,26.7h-3.5c-0.8,0-1.5-0.3-2.1-0.9c-0.3,0.3-0.7,0.5-1.3,0.7c-0.6,0.2-1.1,0.3-1.7,0.3h-2.9v-1.8h2.9
		c0.7,0,1.2-0.1,1.7-0.5c-0.2-0.3-0.5-0.6-1-0.9c-0.6-0.3-1.1-0.6-1.6-0.7v-1.5c1.2-0.7,2.5-1.1,3.7-1.1c1.5,0,2.9,0.5,4.1,1.5
		c-0.1,0.4-0.5,0.8-1,1.4c-0.5,0.6-1.1,1.1-1.5,1.4c0.2,0.2,0.6,0.3,1,0.3h3.1V26.7z M97.8,22.3c-0.6-0.3-1.1-0.4-1.7-0.4
		c-0.5,0-1.1,0.1-1.6,0.4c0.4,0.2,0.7,0.4,1,0.5c0.2,0.2,0.5,0.4,0.8,0.8c0.3-0.1,0.6-0.3,0.9-0.6C97.4,22.7,97.7,22.5,97.8,22.3z"
		/>
	<path d="M105.1,24.1c0,0.7-0.2,1.3-0.6,1.8c-0.4,0.5-1.1,0.8-1.8,0.8h-1.8v-1.8h1.4c0.6,0,0.9-0.4,0.9-1.3v-5.5h1.9V24.1z"/>
	<path d="M108.3,26.7h-1.9v-8.6h1.9V26.7z"/>
</g>
</svg>
